HIERARCHY
ROOT Hips
{
  OFFSET 52.4576 100.652 11.3569
  CHANNELS 6 Xposition Yposition Zposition Zrotation Xrotation Yrotation
  JOINT spine
  {
    OFFSET 0 8.81704 0.507024
    CHANNELS 3 Zrotation Xrotation Yrotation
    JOINT spine1
    {
      OFFSET 0 10.7766 0
      CHANNELS 3 Zrotation Xrotation Yrotation
      JOINT spine2
      {
        OFFSET 0 10.3259 0
        CHANNELS 3 Zrotation Xrotation Yrotation
        JOINT Neck
        {
          OFFSET 0 26.511 1.26395
          CHANNELS 3 Zrotation Xrotation Yrotation
          JOINT Head
          {
            OFFSET 0 8.00966 0
            CHANNELS 3 Zrotation Xrotation Yrotation
            End Site
            {
              OFFSET 0 19.3879 -6.39386
            }
          }
        }
        JOINT RightShoulder
        {
          OFFSET -4.34795 11.1512 -0.605422
          CHANNELS 3 Zrotation Xrotation Yrotation
          JOINT RightArm
          {
            OFFSET 0 14.6258 0
            CHANNELS 3 Zrotation Xrotation Yrotation
            JOINT RightArmRoll
            {
              OFFSET 0 7.3834 0
              CHANNELS 3 Zrotation Xrotation Yrotation
              JOINT RightForeArm
              {
                OFFSET 0 21.5052 0
                CHANNELS 3 Zrotation Xrotation Yrotation
                JOINT RightForeArmRoll
                {
                  OFFSET 0 8.28532 0
                  CHANNELS 3 Zrotation Xrotation Yrotation
                  JOINT RightHand
                  {
                    OFFSET 0 16.6268 0
                    CHANNELS 3 Zrotation Xrotation Yrotation
                    End Site
                    {
                      OFFSET 0 0 0
                    }
                  }
                }
              }
            }
          }
        }
        JOINT LeftShoulder
        {
          OFFSET 4.34795 11.1512 -0.605422
          CHANNELS 3 Zrotation Xrotation Yrotation
          JOINT LeftArm
          {
            OFFSET 0 14.6258 0
            CHANNELS 3 Zrotation Xrotation Yrotation
            JOINT LeftArmRoll
            {
              OFFSET 0 7.3834 0
              CHANNELS 3 Zrotation Xrotation Yrotation
              JOINT LeftForeArm
              {
                OFFSET 0 21.5052 0
                CHANNELS 3 Zrotation Xrotation Yrotation
                JOINT LeftForeArmRoll
                {
                  OFFSET 0 8.28532 0
                  CHANNELS 3 Zrotation Xrotation Yrotation
                  JOINT LeftHand
                  {
                    OFFSET 0 16.6268 0
                    CHANNELS 3 Zrotation Xrotation Yrotation
                    End Site
                    {
                      OFFSET 0 0 0
                    }
                  }
                }
              }
            }
          }
        }
      }
    }
  }
  JOINT RightUpLeg
  {
    OFFSET -7.8151 -1.43309 -1.20217
    CHANNELS 3 Zrotation Xrotation Yrotation
    JOINT RightUpLegRoll
    {
      OFFSET 0 19.4959 0
      CHANNELS 3 Zrotation Xrotation Yrotation
      JOINT RightLeg
      {
        OFFSET 0 -24.1427 0
        CHANNELS 3 Zrotation Xrotation Yrotation
        JOINT RightLegRoll
        {
          OFFSET 0 24.2217 0
          CHANNELS 3 Zrotation Xrotation Yrotation
          JOINT RightFoot
          {
            OFFSET 0 20.1605 0
            CHANNELS 3 Zrotation Xrotation Yrotation
            JOINT RightToeBase
            {
              OFFSET 0 16.8532 0
              CHANNELS 3 Zrotation Xrotation Yrotation
              End Site
              {
                OFFSET 0.00714343 8.16187 -0.94078
              }
            }
          }
        }
      }
    }
  }
  JOINT LeftUpLeg
  {
    OFFSET 7.8151 -1.43309 -1.20217
    CHANNELS 3 Zrotation Xrotation Yrotation
    JOINT LeftUpLegRoll
    {
      OFFSET 0 19.496 0
      CHANNELS 3 Zrotation Xrotation Yrotation
      JOINT LeftLeg
      {
        OFFSET 0 24.1426 0
        CHANNELS 3 Zrotation Xrotation Yrotation
        JOINT LeftLegRoll
        {
          OFFSET 0 24.4456 0
          CHANNELS 3 Zrotation Xrotation Yrotation
          JOINT LeftFoot
          {
            OFFSET 0 19.9366 0
            CHANNELS 3 Zrotation Xrotation Yrotation
            JOINT LeftToeBase
            {
              OFFSET 0 16.8532 0
              CHANNELS 3 Zrotation Xrotation Yrotation
              End Site
              {
                OFFSET -0.0320138 8.16186 -0.940781
              }
            }
          }
        }
      }
    }
  }
}
MOTION
Frames: 5
Frame Time: 0.00208333
52.9103 100.609 11.5618 -0.475843 -2.38282 2.83545 -0.160554 -2.49046 -0.0795815 -0.310784 -0.97793 -0.145141 -0.309072 0.667131 -0.139956 -4.99003 17.6163 2.59993 1.80317 -2.59856 1.43628 38.92 -8.83015 -5.08063 44.31 25.1107 45.7713 2.43321e-007 -3.66873e-008 -7.95142e-007 -0.959196 77.1124 3.00439 -1.30976e-006 -9.52086e-007 -3 8.02895 -4.95147 0.697704 -64.8169 -5.30083 3.66145 -108.156 14.5618 -5.00762 -2.21091e-007 -4.0194e-008 7.92172e-007 -12.1475 2.8427 0.703294 3.7289e-006 -4.1781e-006 3 -8.02886 -4.95146 -0.697698 178.697 -1.25273 -0.32745 180 7.01543e-015 178.906 178.16 5.5349 179.731 -2.99257e-007 -3.05125e-006 0.0385505 -18.1614 67.3107 18.9808 8.1363 25.2327 -3.48766 -176.664 -0.530233 2.12381 4.54188e-006 -4.6773e-006 -1.1004 -2.03328 -7.51865 0.175236 4.83318e-006 -1.63434e-006 -0.125754 19.5155 69.0094 -20.4096 -8.13552 25.2334 3.48695 
52.9139 100.611 11.5633 -0.481089 -2.38703 2.82079 -0.161757 -2.49032 -0.0789075 -0.313601 -0.977653 -0.143726 -0.311906 0.667407 -0.138494 -5.0428 17.6006 2.62216 1.8097 -2.59073 1.44527 38.8951 -8.82538 -5.07567 44.3143 25.1492 45.9017 2.43321e-007 -3.66873e-008 -7.95142e-007 -0.657382 76.3807 2.69934 -1.30976e-006 -9.52086e-007 -3 8.02895 -4.95147 0.697704 -64.8297 -5.31596 3.67039 -108.147 14.5568 -5.01925 -2.21091e-007 -4.0194e-008 7.92172e-007 -12.1453 2.82542 0.701261 3.7289e-006 -4.1781e-006 3 -8.02886 -4.95146 -0.697698 178.698 -1.25208 -0.327162 180 7.01543e-015 178.906 178.159 5.53751 179.732 -2.99257e-007 -3.05125e-006 0.0385266 -18.1602 67.309 18.9794 8.1363 25.2327 -3.48766 -176.659 -0.534854 2.11956 4.54188e-006 -4.6773e-006 -1.10037 -2.03476 -7.51983 0.175322 4.83318e-006 -1.63434e-006 -0.125793 19.5159 69.01 -20.4101 -8.13552 25.2334 3.48695 
52.9275 100.621 11.5593 -0.485074 -2.3882 2.80775 -0.163051 -2.49099 -0.0782082 -0.316527 -0.978987 -0.142272 -0.314849 0.666073 -0.136991 -5.09807 17.587 2.64396 1.81532 -2.58469 1.45297 38.8663 -8.8207 -5.07073 44.324 25.1848 46.0284 2.43321e-007 -3.66873e-008 -7.95142e-007 -0.391121 75.6535 2.42876 -1.30976e-006 -9.52086e-007 -3 8.02895 -4.95147 0.697704 -64.8529 -5.32608 3.67727 -108.127 14.5506 -5.03467 -2.21091e-007 -4.0194e-008 7.92172e-007 -12.1437 2.80908 0.699264 3.7289e-006 -4.1781e-006 3 -8.02886 -4.95146 -0.697698 178.697 -1.24817 -0.326064 180 7.01543e-015 178.906 178.157 5.54021 179.732 -2.99257e-007 -3.05125e-006 0.0385025 -18.1589 67.3074 18.9781 8.1363 25.2327 -3.48766 -176.656 -0.535551 2.11676 4.54188e-006 -4.6773e-006 -1.10034 -2.03601 -7.52149 0.175435 4.83318e-006 -1.63434e-006 -0.125832 19.5163 69.0105 -20.4105 -8.13552 25.2334 3.48694 
52.904 100.617 11.5554 -0.487616 -2.38594 2.79657 -0.164454 -2.49256 -0.0774831 -0.319573 -0.982139 -0.140778 -0.317913 0.662921 -0.135446 -5.15616 17.5757 2.66526 1.81998 -2.58073 1.4592 38.8332 -8.81616 -5.06584 44.3399 25.217 46.1515 2.43321e-007 -3.66873e-008 -7.95142e-007 -0.154339 74.9323 2.18673 -1.30976e-006 -9.52086e-007 -3 8.02895 -4.95147 0.697704 -64.8881 -5.33049 3.68178 -108.094 14.5431 -5.05438 -2.21091e-007 -4.0194e-008 7.92172e-007 -12.143 2.7938 0.697309 3.7289e-006 -4.1781e-006 3 -8.02886 -4.95146 -0.697698 178.694 -1.24058 -0.324047 180 7.01543e-015 178.906 178.155 5.54306 179.732 -2.99257e-007 -3.05125e-006 0.0384784 -18.1576 67.3058 18.9767 8.1363 25.2327 -3.48766 -176.655 -0.531762 2.1156 4.54188e-006 -4.6773e-006 -1.1003 -2.03699 -7.52376 0.175575 4.83318e-006 -1.63434e-006 -0.125872 19.5165 69.0108 -20.4107 -8.13552 25.2334 3.48694 
52.9046 100.615 11.5527 -0.48849 -2.38 2.78717 -0.165976 -2.49514 -0.0767078 -0.322777 -0.987297 -0.139204 -0.321136 0.657763 -0.133818 -5.21653 17.5673 2.68601 1.82257 -2.57921 1.46387 38.7947 -8.81177 -5.061 44.3624 25.2466 46.2697 2.43321e-007 -3.66873e-008 -7.95142e-007 0.0541043 74.2145 1.97162 -1.30976e-006 -9.52086e-007 -3 8.02895 -4.95147 0.697704 -64.9363 -5.32868 3.68372 -108.046 14.5343 -5.07894 -2.21091e-007 -4.0194e-008 7.92172e-007 -12.143 2.77931 0.695352 3.7289e-006 -4.1781e-006 3 -8.02886 -4.95146 -0.697698 178.688 -1.22892 -0.320824 180 7.01543e-015 178.906 178.152 5.54617 179.733 -2.99257e-007 -3.05125e-006 0.0384542 -18.1562 67.304 18.9753 8.1363 25.2327 -3.48766 -176.657 -0.52332 2.11641 4.54188e-006 -4.6773e-006 -1.10027 -2.03758 -7.52651 0.175769 4.83318e-006 -1.63434e-006 -0.125911 19.5165 69.011 -20.4107 -8.13552 25.2334 3.48694 
